<mxfile host="app.diagrams.net" modified="2022-03-02T16:18:26.383Z" agent="5.0 (Macintosh; Intel Mac OS X 10_15_7) AppleWebKit/537.36 (KHTML, like Gecko) Chrome/96.0.4664.110 Safari/537.36" etag="EnFQ5oyYQrj6QSONg9vA" version="16.2.7" type="github">
  <diagram name="Page-1" id="90a13364-a465-7bf4-72fc-28e22215d7a0">
    <mxGraphModel dx="4015.5" dy="2550" grid="1" gridSize="13" guides="1" tooltips="1" connect="1" arrows="1" fold="1" page="1" pageScale="1.5" pageWidth="1169" pageHeight="826" background="none" math="0" shadow="0">
      <root>
        <mxCell id="0" style=";html=1;" />
        <mxCell id="1" style=";html=1;" parent="0" />
        <mxCell id="kjO1eCLJ_FDzMnLDXmi8-50" value="" style="rounded=1;whiteSpace=wrap;html=1;fontSize=32;fillColor=none;strokeColor=#99FFCC;strokeWidth=11;" parent="1" vertex="1">
          <mxGeometry x="-13" y="273" width="1001" height="468" as="geometry" />
        </mxCell>
        <mxCell id="-iZUTilEa2WBl7ZFIHIT-30" value="" style="shape=partialRectangle;whiteSpace=wrap;html=1;bottom=1;right=1;left=1;top=0;fillColor=none;routingCenterX=-0.5;" parent="1" vertex="1">
          <mxGeometry x="169" y="995" width="702" height="27" as="geometry" />
        </mxCell>
        <mxCell id="-iZUTilEa2WBl7ZFIHIT-35" value="&lt;span style=&quot;font-size: 28px&quot;&gt;stack&lt;/span&gt;" style="rounded=1;whiteSpace=wrap;html=1;fillColor=#e1d5e7;strokeColor=#9673a6;" parent="1" vertex="1">
          <mxGeometry x="360.88" y="938.75" width="113.75" height="37" as="geometry" />
        </mxCell>
        <mxCell id="-iZUTilEa2WBl7ZFIHIT-37" value="&lt;span style=&quot;font-size: 28px&quot;&gt;overflow&lt;/span&gt;" style="rounded=1;whiteSpace=wrap;html=1;fillColor=#e1d5e7;strokeColor=#9673a6;" parent="1" vertex="1">
          <mxGeometry x="562.75" y="938.75" width="113.25" height="37" as="geometry" />
        </mxCell>
        <mxCell id="-iZUTilEa2WBl7ZFIHIT-41" value="&lt;font style=&quot;font-size: 28px&quot;&gt;[SEP]&lt;/font&gt;" style="rounded=1;whiteSpace=wrap;html=1;fillColor=#e1d5e7;strokeColor=#9673a6;" parent="1" vertex="1">
          <mxGeometry x="785.5" y="938.75" width="117" height="36.5" as="geometry" />
        </mxCell>
        <mxCell id="-iZUTilEa2WBl7ZFIHIT-42" value="&lt;font style=&quot;font-size: 28px&quot;&gt;[CLS]&lt;/font&gt;" style="rounded=1;whiteSpace=wrap;html=1;fillColor=#e1d5e7;strokeColor=#9673a6;" parent="1" vertex="1">
          <mxGeometry x="138.5" y="939.25" width="111" height="36.5" as="geometry" />
        </mxCell>
        <mxCell id="-iZUTilEa2WBl7ZFIHIT-43" value="&lt;span style=&quot;font-size: 28px&quot;&gt;LanguageModel&lt;/span&gt;" style="shape=ext;double=1;rounded=0;whiteSpace=wrap;html=1;fillColor=#ffe6cc;strokeColor=#d79b00;" parent="1" vertex="1">
          <mxGeometry x="3196.25" y="-325" width="395.5" height="146" as="geometry" />
        </mxCell>
        <mxCell id="-iZUTilEa2WBl7ZFIHIT-59" value="&lt;font style=&quot;font-size: 28px&quot;&gt;V&lt;/font&gt;&lt;font style=&quot;font-size: 23.3333px&quot;&gt;t&lt;/font&gt;" style="rounded=0;whiteSpace=wrap;html=1;fillColor=#d5e8d4;strokeColor=#82b366;" parent="1" vertex="1">
          <mxGeometry x="138.5" y="-364" width="96" height="53" as="geometry" />
        </mxCell>
        <mxCell id="r0zvoIGPUsBEDC_ozORA-17" value="&lt;font style=&quot;font-size: 28px&quot;&gt;V&lt;sub&gt;c&lt;/sub&gt;&lt;/font&gt;" style="rounded=0;whiteSpace=wrap;html=1;fillColor=#d5e8d4;strokeColor=#82b366;" parent="1" vertex="1">
          <mxGeometry x="1196" y="-364" width="96" height="53" as="geometry" />
        </mxCell>
        <mxCell id="r0zvoIGPUsBEDC_ozORA-18" value="" style="shape=flexArrow;endArrow=classic;html=1;fillColor=#f8cecc;strokeColor=#b85450;" parent="1" edge="1">
          <mxGeometry width="50" height="50" relative="1" as="geometry">
            <mxPoint x="1763.5" y="743.75" as="sourcePoint" />
            <mxPoint x="1763.5" y="699.75" as="targetPoint" />
          </mxGeometry>
        </mxCell>
        <mxCell id="r0zvoIGPUsBEDC_ozORA-27" value="&lt;font style=&quot;font-size: 28px&quot;&gt;similarity=cos(V&lt;/font&gt;&lt;font&gt;&lt;span style=&quot;font-size: 23.3333px&quot;&gt;t&lt;/span&gt;&lt;span style=&quot;font-size: 28px&quot;&gt;,Vc&lt;/span&gt;&lt;span style=&quot;font-size: 28px&quot;&gt;)&lt;/span&gt;&lt;/font&gt;" style="rounded=1;whiteSpace=wrap;html=1;fillColor=#fff2cc;strokeColor=#d6b656;" parent="1" vertex="1">
          <mxGeometry x="598" y="-520" width="276" height="60" as="geometry" />
        </mxCell>
        <mxCell id="r0zvoIGPUsBEDC_ozORA-28" value="" style="endArrow=classic;html=1;entryX=0;entryY=0.5;entryDx=0;entryDy=0;exitX=1;exitY=0.5;exitDx=0;exitDy=0;" parent="1" source="-iZUTilEa2WBl7ZFIHIT-59" target="r0zvoIGPUsBEDC_ozORA-27" edge="1">
          <mxGeometry width="50" height="50" relative="1" as="geometry">
            <mxPoint x="533" y="-303.5" as="sourcePoint" />
            <mxPoint x="583" y="-353.5" as="targetPoint" />
          </mxGeometry>
        </mxCell>
        <mxCell id="r0zvoIGPUsBEDC_ozORA-29" value="" style="endArrow=classic;html=1;exitX=0;exitY=0.5;exitDx=0;exitDy=0;entryX=1;entryY=0.5;entryDx=0;entryDy=0;" parent="1" source="r0zvoIGPUsBEDC_ozORA-17" target="r0zvoIGPUsBEDC_ozORA-27" edge="1">
          <mxGeometry width="50" height="50" relative="1" as="geometry">
            <mxPoint x="665.25" y="668" as="sourcePoint" />
            <mxPoint x="665.75" y="638.5" as="targetPoint" />
          </mxGeometry>
        </mxCell>
        <mxCell id="w33IMnsK6YFaEakTSdEN-11" value="" style="shape=waypoint;sketch=0;size=6;pointerEvents=1;points=[];fillColor=none;resizable=0;rotatable=0;perimeter=centerPerimeter;snapToPoint=1;strokeWidth=1;strokeColor=#787878;" parent="1" vertex="1">
          <mxGeometry x="507.75" y="935.25" width="40" height="40" as="geometry" />
        </mxCell>
        <mxCell id="w33IMnsK6YFaEakTSdEN-12" value="" style="shape=waypoint;sketch=0;size=6;pointerEvents=1;points=[];fillColor=none;resizable=0;rotatable=0;perimeter=centerPerimeter;snapToPoint=1;strokeWidth=1;strokeColor=#787878;" parent="1" vertex="1">
          <mxGeometry x="494" y="935.25" width="40" height="40" as="geometry" />
        </mxCell>
        <mxCell id="w33IMnsK6YFaEakTSdEN-25" value="" style="shape=cylinder3;whiteSpace=wrap;html=1;boundedLbl=1;backgroundOutline=1;size=15;fontSize=33;strokeWidth=5;" parent="1" vertex="1">
          <mxGeometry x="912.75" y="1131" width="216.5" height="91" as="geometry" />
        </mxCell>
        <mxCell id="w33IMnsK6YFaEakTSdEN-29" style="edgeStyle=orthogonalEdgeStyle;rounded=0;orthogonalLoop=1;jettySize=auto;html=1;entryX=0.5;entryY=1;entryDx=0;entryDy=0;fontSize=33;" parent="1" source="w33IMnsK6YFaEakTSdEN-26" target="-iZUTilEa2WBl7ZFIHIT-30" edge="1">
          <mxGeometry relative="1" as="geometry">
            <Array as="points">
              <mxPoint x="520" y="1183" />
            </Array>
          </mxGeometry>
        </mxCell>
        <mxCell id="w33IMnsK6YFaEakTSdEN-26" value="&lt;font style=&quot;font-size: 33px&quot;&gt;MIX dataset&lt;/font&gt;" style="text;html=1;strokeColor=none;fillColor=none;align=center;verticalAlign=middle;whiteSpace=wrap;rounded=0;dashed=1;dashPattern=1 2;" parent="1" vertex="1">
          <mxGeometry x="923" y="1170" width="198" height="30" as="geometry" />
        </mxCell>
        <mxCell id="w33IMnsK6YFaEakTSdEN-31" value="text" style="text;html=1;strokeColor=none;fillColor=none;align=center;verticalAlign=middle;whiteSpace=wrap;rounded=0;fontSize=33;" parent="1" vertex="1">
          <mxGeometry x="650" y="1131" width="60" height="30" as="geometry" />
        </mxCell>
        <mxCell id="kjO1eCLJ_FDzMnLDXmi8-4" value="" style="shape=table;html=1;whiteSpace=wrap;startSize=0;container=1;collapsible=0;childLayout=tableLayout;fillColor=#d5e8d4;strokeColor=#82b366;" parent="1" vertex="1">
          <mxGeometry x="104" y="865.75" width="180" height="40" as="geometry" />
        </mxCell>
        <mxCell id="kjO1eCLJ_FDzMnLDXmi8-5" value="" style="shape=tableRow;horizontal=0;startSize=0;swimlaneHead=0;swimlaneBody=0;top=0;left=0;bottom=0;right=0;collapsible=0;dropTarget=0;fillColor=none;points=[[0,0.5],[1,0.5]];portConstraint=eastwest;" parent="kjO1eCLJ_FDzMnLDXmi8-4" vertex="1">
          <mxGeometry width="180" height="40" as="geometry" />
        </mxCell>
        <mxCell id="kjO1eCLJ_FDzMnLDXmi8-6" value="" style="shape=partialRectangle;html=1;whiteSpace=wrap;connectable=0;fillColor=none;top=0;left=0;bottom=0;right=0;overflow=hidden;" parent="kjO1eCLJ_FDzMnLDXmi8-5" vertex="1">
          <mxGeometry width="60" height="40" as="geometry">
            <mxRectangle width="60" height="40" as="alternateBounds" />
          </mxGeometry>
        </mxCell>
        <mxCell id="kjO1eCLJ_FDzMnLDXmi8-7" value="" style="shape=partialRectangle;html=1;whiteSpace=wrap;connectable=0;fillColor=none;top=0;left=0;bottom=0;right=0;overflow=hidden;" parent="kjO1eCLJ_FDzMnLDXmi8-5" vertex="1">
          <mxGeometry x="60" width="60" height="40" as="geometry">
            <mxRectangle width="60" height="40" as="alternateBounds" />
          </mxGeometry>
        </mxCell>
        <mxCell id="kjO1eCLJ_FDzMnLDXmi8-8" value="" style="shape=partialRectangle;html=1;whiteSpace=wrap;connectable=0;fillColor=none;top=0;left=0;bottom=0;right=0;overflow=hidden;" parent="kjO1eCLJ_FDzMnLDXmi8-5" vertex="1">
          <mxGeometry x="120" width="60" height="40" as="geometry">
            <mxRectangle width="60" height="40" as="alternateBounds" />
          </mxGeometry>
        </mxCell>
        <mxCell id="kjO1eCLJ_FDzMnLDXmi8-18" value="" style="shape=table;html=1;whiteSpace=wrap;startSize=0;container=1;collapsible=0;childLayout=tableLayout;fillColor=#d5e8d4;strokeColor=#82b366;" parent="1" vertex="1">
          <mxGeometry x="327.75" y="865.75" width="180" height="40" as="geometry" />
        </mxCell>
        <mxCell id="kjO1eCLJ_FDzMnLDXmi8-19" value="" style="shape=tableRow;horizontal=0;startSize=0;swimlaneHead=0;swimlaneBody=0;top=0;left=0;bottom=0;right=0;collapsible=0;dropTarget=0;fillColor=none;points=[[0,0.5],[1,0.5]];portConstraint=eastwest;" parent="kjO1eCLJ_FDzMnLDXmi8-18" vertex="1">
          <mxGeometry width="180" height="40" as="geometry" />
        </mxCell>
        <mxCell id="kjO1eCLJ_FDzMnLDXmi8-20" value="" style="shape=partialRectangle;html=1;whiteSpace=wrap;connectable=0;fillColor=none;top=0;left=0;bottom=0;right=0;overflow=hidden;" parent="kjO1eCLJ_FDzMnLDXmi8-19" vertex="1">
          <mxGeometry width="60" height="40" as="geometry">
            <mxRectangle width="60" height="40" as="alternateBounds" />
          </mxGeometry>
        </mxCell>
        <mxCell id="kjO1eCLJ_FDzMnLDXmi8-21" value="" style="shape=partialRectangle;html=1;whiteSpace=wrap;connectable=0;fillColor=none;top=0;left=0;bottom=0;right=0;overflow=hidden;" parent="kjO1eCLJ_FDzMnLDXmi8-19" vertex="1">
          <mxGeometry x="60" width="60" height="40" as="geometry">
            <mxRectangle width="60" height="40" as="alternateBounds" />
          </mxGeometry>
        </mxCell>
        <mxCell id="kjO1eCLJ_FDzMnLDXmi8-22" value="" style="shape=partialRectangle;html=1;whiteSpace=wrap;connectable=0;fillColor=none;top=0;left=0;bottom=0;right=0;overflow=hidden;" parent="kjO1eCLJ_FDzMnLDXmi8-19" vertex="1">
          <mxGeometry x="120" width="60" height="40" as="geometry">
            <mxRectangle width="60" height="40" as="alternateBounds" />
          </mxGeometry>
        </mxCell>
        <mxCell id="kjO1eCLJ_FDzMnLDXmi8-23" value="" style="shape=table;html=1;whiteSpace=wrap;startSize=0;container=1;collapsible=0;childLayout=tableLayout;fillColor=#d5e8d4;strokeColor=#82b366;" parent="1" vertex="1">
          <mxGeometry x="534" y="865.75" width="180" height="40" as="geometry" />
        </mxCell>
        <mxCell id="kjO1eCLJ_FDzMnLDXmi8-24" value="" style="shape=tableRow;horizontal=0;startSize=0;swimlaneHead=0;swimlaneBody=0;top=0;left=0;bottom=0;right=0;collapsible=0;dropTarget=0;fillColor=none;points=[[0,0.5],[1,0.5]];portConstraint=eastwest;" parent="kjO1eCLJ_FDzMnLDXmi8-23" vertex="1">
          <mxGeometry width="180" height="40" as="geometry" />
        </mxCell>
        <mxCell id="kjO1eCLJ_FDzMnLDXmi8-25" value="" style="shape=partialRectangle;html=1;whiteSpace=wrap;connectable=0;fillColor=none;top=0;left=0;bottom=0;right=0;overflow=hidden;" parent="kjO1eCLJ_FDzMnLDXmi8-24" vertex="1">
          <mxGeometry width="60" height="40" as="geometry">
            <mxRectangle width="60" height="40" as="alternateBounds" />
          </mxGeometry>
        </mxCell>
        <mxCell id="kjO1eCLJ_FDzMnLDXmi8-26" value="" style="shape=partialRectangle;html=1;whiteSpace=wrap;connectable=0;fillColor=none;top=0;left=0;bottom=0;right=0;overflow=hidden;" parent="kjO1eCLJ_FDzMnLDXmi8-24" vertex="1">
          <mxGeometry x="60" width="60" height="40" as="geometry">
            <mxRectangle width="60" height="40" as="alternateBounds" />
          </mxGeometry>
        </mxCell>
        <mxCell id="kjO1eCLJ_FDzMnLDXmi8-27" value="" style="shape=partialRectangle;html=1;whiteSpace=wrap;connectable=0;fillColor=none;top=0;left=0;bottom=0;right=0;overflow=hidden;" parent="kjO1eCLJ_FDzMnLDXmi8-24" vertex="1">
          <mxGeometry x="120" width="60" height="40" as="geometry">
            <mxRectangle width="60" height="40" as="alternateBounds" />
          </mxGeometry>
        </mxCell>
        <mxCell id="kjO1eCLJ_FDzMnLDXmi8-33" value="" style="shape=table;html=1;whiteSpace=wrap;startSize=0;container=1;collapsible=0;childLayout=tableLayout;fillColor=#d5e8d4;strokeColor=#82b366;" parent="1" vertex="1">
          <mxGeometry x="754" y="865.75" width="180" height="40" as="geometry" />
        </mxCell>
        <mxCell id="kjO1eCLJ_FDzMnLDXmi8-34" value="" style="shape=tableRow;horizontal=0;startSize=0;swimlaneHead=0;swimlaneBody=0;top=0;left=0;bottom=0;right=0;collapsible=0;dropTarget=0;fillColor=none;points=[[0,0.5],[1,0.5]];portConstraint=eastwest;" parent="kjO1eCLJ_FDzMnLDXmi8-33" vertex="1">
          <mxGeometry width="180" height="40" as="geometry" />
        </mxCell>
        <mxCell id="kjO1eCLJ_FDzMnLDXmi8-35" value="" style="shape=partialRectangle;html=1;whiteSpace=wrap;connectable=0;fillColor=none;top=0;left=0;bottom=0;right=0;overflow=hidden;" parent="kjO1eCLJ_FDzMnLDXmi8-34" vertex="1">
          <mxGeometry width="60" height="40" as="geometry">
            <mxRectangle width="60" height="40" as="alternateBounds" />
          </mxGeometry>
        </mxCell>
        <mxCell id="kjO1eCLJ_FDzMnLDXmi8-36" value="" style="shape=partialRectangle;html=1;whiteSpace=wrap;connectable=0;fillColor=none;top=0;left=0;bottom=0;right=0;overflow=hidden;" parent="kjO1eCLJ_FDzMnLDXmi8-34" vertex="1">
          <mxGeometry x="60" width="60" height="40" as="geometry">
            <mxRectangle width="60" height="40" as="alternateBounds" />
          </mxGeometry>
        </mxCell>
        <mxCell id="kjO1eCLJ_FDzMnLDXmi8-37" value="" style="shape=partialRectangle;html=1;whiteSpace=wrap;connectable=0;fillColor=none;top=0;left=0;bottom=0;right=0;overflow=hidden;" parent="kjO1eCLJ_FDzMnLDXmi8-34" vertex="1">
          <mxGeometry x="120" width="60" height="40" as="geometry">
            <mxRectangle width="60" height="40" as="alternateBounds" />
          </mxGeometry>
        </mxCell>
        <mxCell id="kjO1eCLJ_FDzMnLDXmi8-41" value="&lt;font style=&quot;font-size: 32px&quot;&gt;+&lt;/font&gt;" style="ellipse;whiteSpace=wrap;html=1;aspect=fixed;" parent="1" vertex="1">
          <mxGeometry x="168" y="789.25" width="52" height="52" as="geometry" />
        </mxCell>
        <mxCell id="kjO1eCLJ_FDzMnLDXmi8-45" value="&lt;font style=&quot;font-size: 32px&quot;&gt;+&lt;/font&gt;" style="ellipse;whiteSpace=wrap;html=1;aspect=fixed;" parent="1" vertex="1">
          <mxGeometry x="804.5" y="789.25" width="52" height="52" as="geometry" />
        </mxCell>
        <mxCell id="kjO1eCLJ_FDzMnLDXmi8-46" value="&lt;font style=&quot;font-size: 32px&quot;&gt;+&lt;/font&gt;" style="ellipse;whiteSpace=wrap;html=1;aspect=fixed;" parent="1" vertex="1">
          <mxGeometry x="598" y="787.5" width="52" height="52" as="geometry" />
        </mxCell>
        <mxCell id="kjO1eCLJ_FDzMnLDXmi8-47" value="&lt;font style=&quot;font-size: 32px&quot;&gt;+&lt;/font&gt;" style="ellipse;whiteSpace=wrap;html=1;aspect=fixed;" parent="1" vertex="1">
          <mxGeometry x="379.75" y="787.5" width="52" height="52" as="geometry" />
        </mxCell>
        <mxCell id="kjO1eCLJ_FDzMnLDXmi8-48" value="词向量" style="text;html=1;strokeColor=none;fillColor=none;align=center;verticalAlign=middle;whiteSpace=wrap;rounded=0;fontSize=32;" parent="1" vertex="1">
          <mxGeometry x="-26" y="875.75" width="104" height="30" as="geometry" />
        </mxCell>
        <mxCell id="kjO1eCLJ_FDzMnLDXmi8-49" value="位置编码" style="text;html=1;strokeColor=none;fillColor=none;align=center;verticalAlign=middle;whiteSpace=wrap;rounded=0;fontSize=32;" parent="1" vertex="1">
          <mxGeometry x="-26" y="811.25" width="130" height="30" as="geometry" />
        </mxCell>
        <mxCell id="kjO1eCLJ_FDzMnLDXmi8-51" value="self-attention" style="rounded=1;whiteSpace=wrap;html=1;fontSize=32;fillColor=#fff2cc;strokeColor=#d6b656;" parent="1" vertex="1">
          <mxGeometry x="77.5" y="620" width="856.5" height="69" as="geometry" />
        </mxCell>
        <mxCell id="kjO1eCLJ_FDzMnLDXmi8-52" value="Add &amp;amp; Normalize" style="rounded=1;whiteSpace=wrap;html=1;fontSize=32;fillColor=#d5e8d4;strokeColor=#82b366;" parent="1" vertex="1">
          <mxGeometry x="77.5" y="507" width="856.5" height="69" as="geometry" />
        </mxCell>
        <mxCell id="kjO1eCLJ_FDzMnLDXmi8-53" value="Feed Forward" style="rounded=1;whiteSpace=wrap;html=1;fontSize=32;fillColor=#CCFFCC;strokeColor=#b85450;" parent="1" vertex="1">
          <mxGeometry x="104" y="377" width="291.62" height="65" as="geometry" />
        </mxCell>
        <mxCell id="kjO1eCLJ_FDzMnLDXmi8-54" value="Feed Forward" style="rounded=1;whiteSpace=wrap;html=1;fontSize=32;fillColor=#CCFFCC;strokeColor=#b85450;" parent="1" vertex="1">
          <mxGeometry x="588.5" y="377" width="288.5" height="65" as="geometry" />
        </mxCell>
        <mxCell id="kjO1eCLJ_FDzMnLDXmi8-55" value="Add &amp;amp; Normalize" style="rounded=1;whiteSpace=wrap;html=1;fontSize=32;fillColor=#d5e8d4;strokeColor=#82b366;" parent="1" vertex="1">
          <mxGeometry x="85.75" y="286" width="856.5" height="52" as="geometry" />
        </mxCell>
        <mxCell id="kjO1eCLJ_FDzMnLDXmi8-56" value="" style="endArrow=classic;html=1;rounded=0;fontSize=32;exitX=0.5;exitY=0;exitDx=0;exitDy=0;entryX=0.137;entryY=1;entryDx=0;entryDy=0;entryPerimeter=0;strokeWidth=5;" parent="1" source="kjO1eCLJ_FDzMnLDXmi8-41" target="kjO1eCLJ_FDzMnLDXmi8-51" edge="1">
          <mxGeometry width="50" height="50" relative="1" as="geometry">
            <mxPoint x="364" y="687" as="sourcePoint" />
            <mxPoint x="414" y="637" as="targetPoint" />
          </mxGeometry>
        </mxCell>
        <mxCell id="kjO1eCLJ_FDzMnLDXmi8-57" value="" style="endArrow=classic;html=1;rounded=0;fontSize=32;exitX=0.5;exitY=0;exitDx=0;exitDy=0;entryX=0.137;entryY=1;entryDx=0;entryDy=0;entryPerimeter=0;strokeWidth=5;" parent="1" edge="1">
          <mxGeometry width="50" height="50" relative="1" as="geometry">
            <mxPoint x="829.5" y="787.5" as="sourcePoint" />
            <mxPoint x="830.3404999999998" y="687.25" as="targetPoint" />
          </mxGeometry>
        </mxCell>
        <mxCell id="kjO1eCLJ_FDzMnLDXmi8-60" value="" style="curved=1;endArrow=classic;html=1;rounded=0;fontSize=32;strokeWidth=5;dashed=1;entryX=0;entryY=0.75;entryDx=0;entryDy=0;exitX=0.87;exitY=0.944;exitDx=0;exitDy=0;exitPerimeter=0;" parent="1" source="kjO1eCLJ_FDzMnLDXmi8-50" target="kjO1eCLJ_FDzMnLDXmi8-52" edge="1">
          <mxGeometry width="50" height="50" relative="1" as="geometry">
            <mxPoint x="754" y="715" as="sourcePoint" />
            <mxPoint x="65" y="655" as="targetPoint" />
            <Array as="points">
              <mxPoint x="715" y="715" />
              <mxPoint x="377" y="715" />
              <mxPoint x="39" y="728" />
              <mxPoint x="39" y="650" />
              <mxPoint x="26" y="546" />
            </Array>
          </mxGeometry>
        </mxCell>
        <mxCell id="kjO1eCLJ_FDzMnLDXmi8-61" value="" style="curved=1;endArrow=classic;html=1;rounded=0;fontSize=32;strokeWidth=5;dashed=1;entryX=0;entryY=0.75;entryDx=0;entryDy=0;exitX=0.87;exitY=0.944;exitDx=0;exitDy=0;exitPerimeter=0;" parent="1" edge="1">
          <mxGeometry width="50" height="50" relative="1" as="geometry">
            <mxPoint x="856.4999999999999" y="480.7919999999999" as="sourcePoint" />
            <mxPoint x="76.13" y="324.75" as="targetPoint" />
            <Array as="points">
              <mxPoint x="713.63" y="481" />
              <mxPoint x="375.63" y="481" />
              <mxPoint x="37.63" y="494" />
              <mxPoint x="37.63" y="416" />
              <mxPoint x="24.630000000000003" y="312" />
            </Array>
          </mxGeometry>
        </mxCell>
        <mxCell id="kjO1eCLJ_FDzMnLDXmi8-62" value="" style="endArrow=classic;html=1;rounded=0;fontSize=32;strokeWidth=5;" parent="1" edge="1">
          <mxGeometry width="50" height="50" relative="1" as="geometry">
            <mxPoint x="192" y="614" as="sourcePoint" />
            <mxPoint x="192" y="575" as="targetPoint" />
          </mxGeometry>
        </mxCell>
        <mxCell id="kjO1eCLJ_FDzMnLDXmi8-65" value="" style="endArrow=classic;html=1;rounded=0;fontSize=32;strokeWidth=5;" parent="1" edge="1">
          <mxGeometry width="50" height="50" relative="1" as="geometry">
            <mxPoint x="827" y="617" as="sourcePoint" />
            <mxPoint x="827" y="578" as="targetPoint" />
          </mxGeometry>
        </mxCell>
        <mxCell id="kjO1eCLJ_FDzMnLDXmi8-66" value="" style="endArrow=classic;html=1;rounded=0;fontSize=32;strokeWidth=5;exitX=0.137;exitY=-0.058;exitDx=0;exitDy=0;exitPerimeter=0;" parent="1" edge="1">
          <mxGeometry width="50" height="50" relative="1" as="geometry">
            <mxPoint x="194.8404999999998" y="507.99800000000005" as="sourcePoint" />
            <mxPoint x="195" y="447" as="targetPoint" />
          </mxGeometry>
        </mxCell>
        <mxCell id="kjO1eCLJ_FDzMnLDXmi8-67" value="" style="endArrow=classic;html=1;rounded=0;fontSize=32;strokeWidth=5;entryX=0.858;entryY=1.031;entryDx=0;entryDy=0;entryPerimeter=0;" parent="1" edge="1">
          <mxGeometry width="50" height="50" relative="1" as="geometry">
            <mxPoint x="821" y="507" as="sourcePoint" />
            <mxPoint x="820.5329999999999" y="445.0149999999999" as="targetPoint" />
          </mxGeometry>
        </mxCell>
        <mxCell id="kjO1eCLJ_FDzMnLDXmi8-68" value="" style="endArrow=classic;html=1;rounded=0;fontSize=32;exitX=0.5;exitY=0;exitDx=0;exitDy=0;strokeWidth=5;" parent="1" edge="1">
          <mxGeometry width="50" height="50" relative="1" as="geometry">
            <mxPoint x="193" y="273" as="sourcePoint" />
            <mxPoint x="194" y="195" as="targetPoint" />
          </mxGeometry>
        </mxCell>
        <mxCell id="kjO1eCLJ_FDzMnLDXmi8-69" value="" style="endArrow=classic;html=1;rounded=0;fontSize=32;exitX=0.5;exitY=0;exitDx=0;exitDy=0;strokeWidth=5;" parent="1" edge="1">
          <mxGeometry width="50" height="50" relative="1" as="geometry">
            <mxPoint x="812.75" y="273" as="sourcePoint" />
            <mxPoint x="813" y="195" as="targetPoint" />
          </mxGeometry>
        </mxCell>
        <mxCell id="kjO1eCLJ_FDzMnLDXmi8-72" value="" style="endArrow=classic;html=1;rounded=0;fontSize=32;strokeWidth=5;" parent="1" edge="1">
          <mxGeometry width="50" height="50" relative="1" as="geometry">
            <mxPoint x="193" y="377" as="sourcePoint" />
            <mxPoint x="193" y="338" as="targetPoint" />
          </mxGeometry>
        </mxCell>
        <mxCell id="kjO1eCLJ_FDzMnLDXmi8-75" value="" style="endArrow=classic;html=1;rounded=0;fontSize=32;strokeWidth=5;" parent="1" edge="1">
          <mxGeometry width="50" height="50" relative="1" as="geometry">
            <mxPoint x="818" y="377" as="sourcePoint" />
            <mxPoint x="818" y="338" as="targetPoint" />
          </mxGeometry>
        </mxCell>
        <mxCell id="kjO1eCLJ_FDzMnLDXmi8-117" value="" style="rounded=1;whiteSpace=wrap;html=1;fontSize=32;fillColor=none;strokeColor=#99FFCC;strokeWidth=11;" parent="1" vertex="1">
          <mxGeometry x="-19.25" y="-221" width="1001" height="468" as="geometry" />
        </mxCell>
        <mxCell id="kjO1eCLJ_FDzMnLDXmi8-118" value="self-attention" style="rounded=1;whiteSpace=wrap;html=1;fontSize=32;fillColor=#fff2cc;strokeColor=#d6b656;" parent="1" vertex="1">
          <mxGeometry x="71.25" y="126" width="856.5" height="69" as="geometry" />
        </mxCell>
        <mxCell id="kjO1eCLJ_FDzMnLDXmi8-119" value="Add &amp;amp; Normalize" style="rounded=1;whiteSpace=wrap;html=1;fontSize=32;fillColor=#d5e8d4;strokeColor=#82b366;" parent="1" vertex="1">
          <mxGeometry x="71.25" y="13" width="856.5" height="69" as="geometry" />
        </mxCell>
        <mxCell id="kjO1eCLJ_FDzMnLDXmi8-120" value="Feed Forward" style="rounded=1;whiteSpace=wrap;html=1;fontSize=32;fillColor=#CCFFCC;strokeColor=#b85450;" parent="1" vertex="1">
          <mxGeometry x="97.75" y="-117" width="291.62" height="65" as="geometry" />
        </mxCell>
        <mxCell id="kjO1eCLJ_FDzMnLDXmi8-121" value="Feed Forward" style="rounded=1;whiteSpace=wrap;html=1;fontSize=32;fillColor=#CCFFCC;strokeColor=#b85450;" parent="1" vertex="1">
          <mxGeometry x="582.25" y="-117" width="288.5" height="65" as="geometry" />
        </mxCell>
        <mxCell id="kjO1eCLJ_FDzMnLDXmi8-122" value="Add &amp;amp; Normalize" style="rounded=1;whiteSpace=wrap;html=1;fontSize=32;fillColor=#d5e8d4;strokeColor=#82b366;" parent="1" vertex="1">
          <mxGeometry x="79.5" y="-208" width="856.5" height="52" as="geometry" />
        </mxCell>
        <mxCell id="kjO1eCLJ_FDzMnLDXmi8-123" value="" style="curved=1;endArrow=classic;html=1;rounded=0;fontSize=32;strokeWidth=5;dashed=1;entryX=0;entryY=0.75;entryDx=0;entryDy=0;exitX=0.87;exitY=0.944;exitDx=0;exitDy=0;exitPerimeter=0;" parent="1" source="kjO1eCLJ_FDzMnLDXmi8-117" target="kjO1eCLJ_FDzMnLDXmi8-119" edge="1">
          <mxGeometry width="50" height="50" relative="1" as="geometry">
            <mxPoint x="747.75" y="221" as="sourcePoint" />
            <mxPoint x="58.75" y="161" as="targetPoint" />
            <Array as="points">
              <mxPoint x="708.75" y="221" />
              <mxPoint x="370.75" y="221" />
              <mxPoint x="32.75" y="234" />
              <mxPoint x="32.75" y="156" />
              <mxPoint x="19.75" y="52" />
            </Array>
          </mxGeometry>
        </mxCell>
        <mxCell id="kjO1eCLJ_FDzMnLDXmi8-124" value="" style="curved=1;endArrow=classic;html=1;rounded=0;fontSize=32;strokeWidth=5;dashed=1;entryX=0;entryY=0.75;entryDx=0;entryDy=0;exitX=0.87;exitY=0.944;exitDx=0;exitDy=0;exitPerimeter=0;" parent="1" edge="1">
          <mxGeometry width="50" height="50" relative="1" as="geometry">
            <mxPoint x="850.25" y="-13.208000000000084" as="sourcePoint" />
            <mxPoint x="69.88000000000011" y="-169.25" as="targetPoint" />
            <Array as="points">
              <mxPoint x="707.38" y="-13" />
              <mxPoint x="369.38" y="-13" />
              <mxPoint x="31.379999999999995" />
              <mxPoint x="31.379999999999995" y="-78" />
              <mxPoint x="18.379999999999995" y="-182" />
            </Array>
          </mxGeometry>
        </mxCell>
        <mxCell id="kjO1eCLJ_FDzMnLDXmi8-125" value="" style="endArrow=classic;html=1;rounded=0;fontSize=32;strokeWidth=5;" parent="1" edge="1">
          <mxGeometry width="50" height="50" relative="1" as="geometry">
            <mxPoint x="185.75" y="120" as="sourcePoint" />
            <mxPoint x="185.75" y="81" as="targetPoint" />
          </mxGeometry>
        </mxCell>
        <mxCell id="kjO1eCLJ_FDzMnLDXmi8-128" value="" style="endArrow=classic;html=1;rounded=0;fontSize=32;strokeWidth=5;" parent="1" edge="1">
          <mxGeometry width="50" height="50" relative="1" as="geometry">
            <mxPoint x="820.75" y="123" as="sourcePoint" />
            <mxPoint x="820.75" y="84" as="targetPoint" />
          </mxGeometry>
        </mxCell>
        <mxCell id="kjO1eCLJ_FDzMnLDXmi8-129" value="" style="endArrow=classic;html=1;rounded=0;fontSize=32;strokeWidth=5;exitX=0.137;exitY=-0.058;exitDx=0;exitDy=0;exitPerimeter=0;" parent="1" edge="1">
          <mxGeometry width="50" height="50" relative="1" as="geometry">
            <mxPoint x="188.5904999999998" y="13.998000000000047" as="sourcePoint" />
            <mxPoint x="188.75" y="-47" as="targetPoint" />
          </mxGeometry>
        </mxCell>
        <mxCell id="kjO1eCLJ_FDzMnLDXmi8-130" value="" style="endArrow=classic;html=1;rounded=0;fontSize=32;strokeWidth=5;entryX=0.858;entryY=1.031;entryDx=0;entryDy=0;entryPerimeter=0;" parent="1" edge="1">
          <mxGeometry width="50" height="50" relative="1" as="geometry">
            <mxPoint x="814.75" y="13" as="sourcePoint" />
            <mxPoint x="814.2829999999999" y="-48.98500000000013" as="targetPoint" />
          </mxGeometry>
        </mxCell>
        <mxCell id="kjO1eCLJ_FDzMnLDXmi8-131" value="" style="endArrow=classic;html=1;rounded=0;fontSize=32;exitX=0.5;exitY=0;exitDx=0;exitDy=0;strokeWidth=5;" parent="1" edge="1">
          <mxGeometry width="50" height="50" relative="1" as="geometry">
            <mxPoint x="186.75" y="-221" as="sourcePoint" />
            <mxPoint x="187.75" y="-299" as="targetPoint" />
          </mxGeometry>
        </mxCell>
        <mxCell id="kjO1eCLJ_FDzMnLDXmi8-135" value="" style="endArrow=classic;html=1;rounded=0;fontSize=32;strokeWidth=5;" parent="1" edge="1">
          <mxGeometry width="50" height="50" relative="1" as="geometry">
            <mxPoint x="186.75" y="-117" as="sourcePoint" />
            <mxPoint x="186.75" y="-156" as="targetPoint" />
          </mxGeometry>
        </mxCell>
        <mxCell id="kjO1eCLJ_FDzMnLDXmi8-136" value="" style="endArrow=classic;html=1;rounded=0;fontSize=32;strokeWidth=5;" parent="1" edge="1">
          <mxGeometry width="50" height="50" relative="1" as="geometry">
            <mxPoint x="811.75" y="-117" as="sourcePoint" />
            <mxPoint x="811.75" y="-156" as="targetPoint" />
          </mxGeometry>
        </mxCell>
        <mxCell id="kjO1eCLJ_FDzMnLDXmi8-137" value="编码器1" style="text;html=1;strokeColor=none;fillColor=none;align=center;verticalAlign=middle;whiteSpace=wrap;rounded=0;fontSize=32;" parent="1" vertex="1">
          <mxGeometry x="-195" y="494" width="117" height="30" as="geometry" />
        </mxCell>
        <mxCell id="kjO1eCLJ_FDzMnLDXmi8-138" value="编码器2" style="text;html=1;strokeColor=none;fillColor=none;align=center;verticalAlign=middle;whiteSpace=wrap;rounded=0;fontSize=32;" parent="1" vertex="1">
          <mxGeometry x="-195" y="32.5" width="117" height="30" as="geometry" />
        </mxCell>
        <mxCell id="kjO1eCLJ_FDzMnLDXmi8-205" value="" style="rounded=1;whiteSpace=wrap;html=1;fontSize=32;fillColor=none;strokeColor=#99FFCC;strokeWidth=11;" parent="1" vertex="1">
          <mxGeometry x="1045" y="272.5" width="1001" height="468" as="geometry" />
        </mxCell>
        <mxCell id="kjO1eCLJ_FDzMnLDXmi8-206" value="&lt;span style=&quot;font-size: 28px&quot;&gt;public&lt;/span&gt;" style="rounded=1;whiteSpace=wrap;html=1;fillColor=#e1d5e7;strokeColor=#9673a6;" parent="1" vertex="1">
          <mxGeometry x="1418.88" y="938.25" width="113.75" height="37" as="geometry" />
        </mxCell>
        <mxCell id="kjO1eCLJ_FDzMnLDXmi8-207" value="&lt;span style=&quot;font-size: 28px&quot;&gt;stack&lt;/span&gt;" style="rounded=1;whiteSpace=wrap;html=1;fillColor=#e1d5e7;strokeColor=#9673a6;" parent="1" vertex="1">
          <mxGeometry x="1620.75" y="938.25" width="113.25" height="37" as="geometry" />
        </mxCell>
        <mxCell id="kjO1eCLJ_FDzMnLDXmi8-208" value="&lt;font style=&quot;font-size: 28px&quot;&gt;[SEP]&lt;/font&gt;" style="rounded=1;whiteSpace=wrap;html=1;fillColor=#e1d5e7;strokeColor=#9673a6;" parent="1" vertex="1">
          <mxGeometry x="1843.5" y="938.25" width="117" height="36.5" as="geometry" />
        </mxCell>
        <mxCell id="kjO1eCLJ_FDzMnLDXmi8-209" value="&lt;font style=&quot;font-size: 28px&quot;&gt;[CLS]&lt;/font&gt;" style="rounded=1;whiteSpace=wrap;html=1;fillColor=#e1d5e7;strokeColor=#9673a6;" parent="1" vertex="1">
          <mxGeometry x="1196.5" y="938.75" width="111" height="36.5" as="geometry" />
        </mxCell>
        <mxCell id="kjO1eCLJ_FDzMnLDXmi8-210" value="" style="shape=waypoint;sketch=0;size=6;pointerEvents=1;points=[];fillColor=none;resizable=0;rotatable=0;perimeter=centerPerimeter;snapToPoint=1;strokeWidth=1;strokeColor=#787878;" parent="1" vertex="1">
          <mxGeometry x="1565.75" y="934.75" width="40" height="40" as="geometry" />
        </mxCell>
        <mxCell id="kjO1eCLJ_FDzMnLDXmi8-211" value="" style="shape=waypoint;sketch=0;size=6;pointerEvents=1;points=[];fillColor=none;resizable=0;rotatable=0;perimeter=centerPerimeter;snapToPoint=1;strokeWidth=1;strokeColor=#787878;" parent="1" vertex="1">
          <mxGeometry x="1552" y="934.75" width="40" height="40" as="geometry" />
        </mxCell>
        <mxCell id="kjO1eCLJ_FDzMnLDXmi8-212" value="" style="shape=table;html=1;whiteSpace=wrap;startSize=0;container=1;collapsible=0;childLayout=tableLayout;fillColor=#d5e8d4;strokeColor=#82b366;" parent="1" vertex="1">
          <mxGeometry x="1162" y="865.25" width="180" height="40" as="geometry" />
        </mxCell>
        <mxCell id="kjO1eCLJ_FDzMnLDXmi8-213" value="" style="shape=tableRow;horizontal=0;startSize=0;swimlaneHead=0;swimlaneBody=0;top=0;left=0;bottom=0;right=0;collapsible=0;dropTarget=0;fillColor=none;points=[[0,0.5],[1,0.5]];portConstraint=eastwest;" parent="kjO1eCLJ_FDzMnLDXmi8-212" vertex="1">
          <mxGeometry width="180" height="40" as="geometry" />
        </mxCell>
        <mxCell id="kjO1eCLJ_FDzMnLDXmi8-214" value="" style="shape=partialRectangle;html=1;whiteSpace=wrap;connectable=0;fillColor=none;top=0;left=0;bottom=0;right=0;overflow=hidden;" parent="kjO1eCLJ_FDzMnLDXmi8-213" vertex="1">
          <mxGeometry width="60" height="40" as="geometry">
            <mxRectangle width="60" height="40" as="alternateBounds" />
          </mxGeometry>
        </mxCell>
        <mxCell id="kjO1eCLJ_FDzMnLDXmi8-215" value="" style="shape=partialRectangle;html=1;whiteSpace=wrap;connectable=0;fillColor=none;top=0;left=0;bottom=0;right=0;overflow=hidden;" parent="kjO1eCLJ_FDzMnLDXmi8-213" vertex="1">
          <mxGeometry x="60" width="60" height="40" as="geometry">
            <mxRectangle width="60" height="40" as="alternateBounds" />
          </mxGeometry>
        </mxCell>
        <mxCell id="kjO1eCLJ_FDzMnLDXmi8-216" value="" style="shape=partialRectangle;html=1;whiteSpace=wrap;connectable=0;fillColor=none;top=0;left=0;bottom=0;right=0;overflow=hidden;" parent="kjO1eCLJ_FDzMnLDXmi8-213" vertex="1">
          <mxGeometry x="120" width="60" height="40" as="geometry">
            <mxRectangle width="60" height="40" as="alternateBounds" />
          </mxGeometry>
        </mxCell>
        <mxCell id="kjO1eCLJ_FDzMnLDXmi8-217" value="" style="shape=table;html=1;whiteSpace=wrap;startSize=0;container=1;collapsible=0;childLayout=tableLayout;fillColor=#d5e8d4;strokeColor=#82b366;" parent="1" vertex="1">
          <mxGeometry x="1385.75" y="865.25" width="180" height="40" as="geometry" />
        </mxCell>
        <mxCell id="kjO1eCLJ_FDzMnLDXmi8-218" value="" style="shape=tableRow;horizontal=0;startSize=0;swimlaneHead=0;swimlaneBody=0;top=0;left=0;bottom=0;right=0;collapsible=0;dropTarget=0;fillColor=none;points=[[0,0.5],[1,0.5]];portConstraint=eastwest;" parent="kjO1eCLJ_FDzMnLDXmi8-217" vertex="1">
          <mxGeometry width="180" height="40" as="geometry" />
        </mxCell>
        <mxCell id="kjO1eCLJ_FDzMnLDXmi8-219" value="" style="shape=partialRectangle;html=1;whiteSpace=wrap;connectable=0;fillColor=none;top=0;left=0;bottom=0;right=0;overflow=hidden;" parent="kjO1eCLJ_FDzMnLDXmi8-218" vertex="1">
          <mxGeometry width="60" height="40" as="geometry">
            <mxRectangle width="60" height="40" as="alternateBounds" />
          </mxGeometry>
        </mxCell>
        <mxCell id="kjO1eCLJ_FDzMnLDXmi8-220" value="" style="shape=partialRectangle;html=1;whiteSpace=wrap;connectable=0;fillColor=none;top=0;left=0;bottom=0;right=0;overflow=hidden;" parent="kjO1eCLJ_FDzMnLDXmi8-218" vertex="1">
          <mxGeometry x="60" width="60" height="40" as="geometry">
            <mxRectangle width="60" height="40" as="alternateBounds" />
          </mxGeometry>
        </mxCell>
        <mxCell id="kjO1eCLJ_FDzMnLDXmi8-221" value="" style="shape=partialRectangle;html=1;whiteSpace=wrap;connectable=0;fillColor=none;top=0;left=0;bottom=0;right=0;overflow=hidden;" parent="kjO1eCLJ_FDzMnLDXmi8-218" vertex="1">
          <mxGeometry x="120" width="60" height="40" as="geometry">
            <mxRectangle width="60" height="40" as="alternateBounds" />
          </mxGeometry>
        </mxCell>
        <mxCell id="kjO1eCLJ_FDzMnLDXmi8-222" value="" style="shape=table;html=1;whiteSpace=wrap;startSize=0;container=1;collapsible=0;childLayout=tableLayout;fillColor=#d5e8d4;strokeColor=#82b366;" parent="1" vertex="1">
          <mxGeometry x="1592" y="865.25" width="180" height="40" as="geometry" />
        </mxCell>
        <mxCell id="kjO1eCLJ_FDzMnLDXmi8-223" value="" style="shape=tableRow;horizontal=0;startSize=0;swimlaneHead=0;swimlaneBody=0;top=0;left=0;bottom=0;right=0;collapsible=0;dropTarget=0;fillColor=none;points=[[0,0.5],[1,0.5]];portConstraint=eastwest;" parent="kjO1eCLJ_FDzMnLDXmi8-222" vertex="1">
          <mxGeometry width="180" height="40" as="geometry" />
        </mxCell>
        <mxCell id="kjO1eCLJ_FDzMnLDXmi8-224" value="" style="shape=partialRectangle;html=1;whiteSpace=wrap;connectable=0;fillColor=none;top=0;left=0;bottom=0;right=0;overflow=hidden;" parent="kjO1eCLJ_FDzMnLDXmi8-223" vertex="1">
          <mxGeometry width="60" height="40" as="geometry">
            <mxRectangle width="60" height="40" as="alternateBounds" />
          </mxGeometry>
        </mxCell>
        <mxCell id="kjO1eCLJ_FDzMnLDXmi8-225" value="" style="shape=partialRectangle;html=1;whiteSpace=wrap;connectable=0;fillColor=none;top=0;left=0;bottom=0;right=0;overflow=hidden;" parent="kjO1eCLJ_FDzMnLDXmi8-223" vertex="1">
          <mxGeometry x="60" width="60" height="40" as="geometry">
            <mxRectangle width="60" height="40" as="alternateBounds" />
          </mxGeometry>
        </mxCell>
        <mxCell id="kjO1eCLJ_FDzMnLDXmi8-226" value="" style="shape=partialRectangle;html=1;whiteSpace=wrap;connectable=0;fillColor=none;top=0;left=0;bottom=0;right=0;overflow=hidden;" parent="kjO1eCLJ_FDzMnLDXmi8-223" vertex="1">
          <mxGeometry x="120" width="60" height="40" as="geometry">
            <mxRectangle width="60" height="40" as="alternateBounds" />
          </mxGeometry>
        </mxCell>
        <mxCell id="kjO1eCLJ_FDzMnLDXmi8-227" value="" style="shape=table;html=1;whiteSpace=wrap;startSize=0;container=1;collapsible=0;childLayout=tableLayout;fillColor=#d5e8d4;strokeColor=#82b366;" parent="1" vertex="1">
          <mxGeometry x="1812" y="865.25" width="180" height="40" as="geometry" />
        </mxCell>
        <mxCell id="kjO1eCLJ_FDzMnLDXmi8-228" value="" style="shape=tableRow;horizontal=0;startSize=0;swimlaneHead=0;swimlaneBody=0;top=0;left=0;bottom=0;right=0;collapsible=0;dropTarget=0;fillColor=none;points=[[0,0.5],[1,0.5]];portConstraint=eastwest;" parent="kjO1eCLJ_FDzMnLDXmi8-227" vertex="1">
          <mxGeometry width="180" height="40" as="geometry" />
        </mxCell>
        <mxCell id="kjO1eCLJ_FDzMnLDXmi8-229" value="" style="shape=partialRectangle;html=1;whiteSpace=wrap;connectable=0;fillColor=none;top=0;left=0;bottom=0;right=0;overflow=hidden;" parent="kjO1eCLJ_FDzMnLDXmi8-228" vertex="1">
          <mxGeometry width="60" height="40" as="geometry">
            <mxRectangle width="60" height="40" as="alternateBounds" />
          </mxGeometry>
        </mxCell>
        <mxCell id="kjO1eCLJ_FDzMnLDXmi8-230" value="" style="shape=partialRectangle;html=1;whiteSpace=wrap;connectable=0;fillColor=none;top=0;left=0;bottom=0;right=0;overflow=hidden;" parent="kjO1eCLJ_FDzMnLDXmi8-228" vertex="1">
          <mxGeometry x="60" width="60" height="40" as="geometry">
            <mxRectangle width="60" height="40" as="alternateBounds" />
          </mxGeometry>
        </mxCell>
        <mxCell id="kjO1eCLJ_FDzMnLDXmi8-231" value="" style="shape=partialRectangle;html=1;whiteSpace=wrap;connectable=0;fillColor=none;top=0;left=0;bottom=0;right=0;overflow=hidden;" parent="kjO1eCLJ_FDzMnLDXmi8-228" vertex="1">
          <mxGeometry x="120" width="60" height="40" as="geometry">
            <mxRectangle width="60" height="40" as="alternateBounds" />
          </mxGeometry>
        </mxCell>
        <mxCell id="kjO1eCLJ_FDzMnLDXmi8-232" value="&lt;font style=&quot;font-size: 32px&quot;&gt;+&lt;/font&gt;" style="ellipse;whiteSpace=wrap;html=1;aspect=fixed;" parent="1" vertex="1">
          <mxGeometry x="1226" y="788.75" width="52" height="52" as="geometry" />
        </mxCell>
        <mxCell id="kjO1eCLJ_FDzMnLDXmi8-233" value="&lt;font style=&quot;font-size: 32px&quot;&gt;+&lt;/font&gt;" style="ellipse;whiteSpace=wrap;html=1;aspect=fixed;" parent="1" vertex="1">
          <mxGeometry x="1862.5" y="788.75" width="52" height="52" as="geometry" />
        </mxCell>
        <mxCell id="kjO1eCLJ_FDzMnLDXmi8-234" value="&lt;font style=&quot;font-size: 32px&quot;&gt;+&lt;/font&gt;" style="ellipse;whiteSpace=wrap;html=1;aspect=fixed;" parent="1" vertex="1">
          <mxGeometry x="1656" y="787" width="52" height="52" as="geometry" />
        </mxCell>
        <mxCell id="kjO1eCLJ_FDzMnLDXmi8-235" value="&lt;font style=&quot;font-size: 32px&quot;&gt;+&lt;/font&gt;" style="ellipse;whiteSpace=wrap;html=1;aspect=fixed;" parent="1" vertex="1">
          <mxGeometry x="1437.75" y="787" width="52" height="52" as="geometry" />
        </mxCell>
        <mxCell id="kjO1eCLJ_FDzMnLDXmi8-238" value="self-attention" style="rounded=1;whiteSpace=wrap;html=1;fontSize=32;fillColor=#fff2cc;strokeColor=#d6b656;" parent="1" vertex="1">
          <mxGeometry x="1135.5" y="619.5" width="856.5" height="69" as="geometry" />
        </mxCell>
        <mxCell id="kjO1eCLJ_FDzMnLDXmi8-239" value="Add &amp;amp; Normalize" style="rounded=1;whiteSpace=wrap;html=1;fontSize=32;fillColor=#d5e8d4;strokeColor=#82b366;" parent="1" vertex="1">
          <mxGeometry x="1135.5" y="506.5" width="856.5" height="69" as="geometry" />
        </mxCell>
        <mxCell id="kjO1eCLJ_FDzMnLDXmi8-240" value="Feed Forward" style="rounded=1;whiteSpace=wrap;html=1;fontSize=32;fillColor=#CCFFCC;strokeColor=#b85450;" parent="1" vertex="1">
          <mxGeometry x="1162" y="376.5" width="291.62" height="65" as="geometry" />
        </mxCell>
        <mxCell id="kjO1eCLJ_FDzMnLDXmi8-241" value="Feed Forward" style="rounded=1;whiteSpace=wrap;html=1;fontSize=32;fillColor=#CCFFCC;strokeColor=#b85450;" parent="1" vertex="1">
          <mxGeometry x="1646.5" y="376.5" width="288.5" height="65" as="geometry" />
        </mxCell>
        <mxCell id="kjO1eCLJ_FDzMnLDXmi8-242" value="Add &amp;amp; Normalize" style="rounded=1;whiteSpace=wrap;html=1;fontSize=32;fillColor=#d5e8d4;strokeColor=#82b366;" parent="1" vertex="1">
          <mxGeometry x="1143.75" y="285.5" width="856.5" height="52" as="geometry" />
        </mxCell>
        <mxCell id="kjO1eCLJ_FDzMnLDXmi8-243" value="" style="endArrow=classic;html=1;rounded=0;fontSize=32;exitX=0.5;exitY=0;exitDx=0;exitDy=0;entryX=0.137;entryY=1;entryDx=0;entryDy=0;entryPerimeter=0;strokeWidth=5;" parent="1" source="kjO1eCLJ_FDzMnLDXmi8-232" target="kjO1eCLJ_FDzMnLDXmi8-238" edge="1">
          <mxGeometry width="50" height="50" relative="1" as="geometry">
            <mxPoint x="1422" y="686.5" as="sourcePoint" />
            <mxPoint x="1472" y="636.5" as="targetPoint" />
          </mxGeometry>
        </mxCell>
        <mxCell id="kjO1eCLJ_FDzMnLDXmi8-244" value="" style="endArrow=classic;html=1;rounded=0;fontSize=32;exitX=0.5;exitY=0;exitDx=0;exitDy=0;entryX=0.137;entryY=1;entryDx=0;entryDy=0;entryPerimeter=0;strokeWidth=5;" parent="1" edge="1">
          <mxGeometry width="50" height="50" relative="1" as="geometry">
            <mxPoint x="1887.5" y="787" as="sourcePoint" />
            <mxPoint x="1888.3405000000002" y="686.75" as="targetPoint" />
          </mxGeometry>
        </mxCell>
        <mxCell id="kjO1eCLJ_FDzMnLDXmi8-245" value="" style="curved=1;endArrow=classic;html=1;rounded=0;fontSize=32;strokeWidth=5;dashed=1;entryX=0;entryY=0.75;entryDx=0;entryDy=0;exitX=0.87;exitY=0.944;exitDx=0;exitDy=0;exitPerimeter=0;" parent="1" source="kjO1eCLJ_FDzMnLDXmi8-205" target="kjO1eCLJ_FDzMnLDXmi8-239" edge="1">
          <mxGeometry width="50" height="50" relative="1" as="geometry">
            <mxPoint x="1812" y="714.5" as="sourcePoint" />
            <mxPoint x="1123" y="654.5" as="targetPoint" />
            <Array as="points">
              <mxPoint x="1773" y="714.5" />
              <mxPoint x="1435" y="714.5" />
              <mxPoint x="1097" y="727.5" />
              <mxPoint x="1097" y="649.5" />
              <mxPoint x="1084" y="545.5" />
            </Array>
          </mxGeometry>
        </mxCell>
        <mxCell id="kjO1eCLJ_FDzMnLDXmi8-246" value="" style="curved=1;endArrow=classic;html=1;rounded=0;fontSize=32;strokeWidth=5;dashed=1;entryX=0;entryY=0.75;entryDx=0;entryDy=0;exitX=0.87;exitY=0.944;exitDx=0;exitDy=0;exitPerimeter=0;" parent="1" edge="1">
          <mxGeometry width="50" height="50" relative="1" as="geometry">
            <mxPoint x="1914.5" y="480.2919999999999" as="sourcePoint" />
            <mxPoint x="1134.13" y="324.25" as="targetPoint" />
            <Array as="points">
              <mxPoint x="1771.63" y="480.5" />
              <mxPoint x="1433.63" y="480.5" />
              <mxPoint x="1095.63" y="493.5" />
              <mxPoint x="1095.63" y="415.5" />
              <mxPoint x="1082.63" y="311.5" />
            </Array>
          </mxGeometry>
        </mxCell>
        <mxCell id="kjO1eCLJ_FDzMnLDXmi8-247" value="" style="endArrow=classic;html=1;rounded=0;fontSize=32;strokeWidth=5;" parent="1" edge="1">
          <mxGeometry width="50" height="50" relative="1" as="geometry">
            <mxPoint x="1250" y="613.5" as="sourcePoint" />
            <mxPoint x="1250" y="574.5" as="targetPoint" />
          </mxGeometry>
        </mxCell>
        <mxCell id="kjO1eCLJ_FDzMnLDXmi8-248" value="" style="endArrow=classic;html=1;rounded=0;fontSize=32;strokeWidth=5;" parent="1" edge="1">
          <mxGeometry width="50" height="50" relative="1" as="geometry">
            <mxPoint x="1885" y="616.5" as="sourcePoint" />
            <mxPoint x="1885" y="577.5" as="targetPoint" />
          </mxGeometry>
        </mxCell>
        <mxCell id="kjO1eCLJ_FDzMnLDXmi8-249" value="" style="endArrow=classic;html=1;rounded=0;fontSize=32;strokeWidth=5;exitX=0.137;exitY=-0.058;exitDx=0;exitDy=0;exitPerimeter=0;" parent="1" edge="1">
          <mxGeometry width="50" height="50" relative="1" as="geometry">
            <mxPoint x="1252.8404999999998" y="507.49800000000005" as="sourcePoint" />
            <mxPoint x="1253" y="446.5" as="targetPoint" />
          </mxGeometry>
        </mxCell>
        <mxCell id="kjO1eCLJ_FDzMnLDXmi8-250" value="" style="endArrow=classic;html=1;rounded=0;fontSize=32;strokeWidth=5;entryX=0.858;entryY=1.031;entryDx=0;entryDy=0;entryPerimeter=0;" parent="1" edge="1">
          <mxGeometry width="50" height="50" relative="1" as="geometry">
            <mxPoint x="1879" y="506.5" as="sourcePoint" />
            <mxPoint x="1878.5329999999994" y="444.5149999999999" as="targetPoint" />
          </mxGeometry>
        </mxCell>
        <mxCell id="kjO1eCLJ_FDzMnLDXmi8-251" value="" style="endArrow=classic;html=1;rounded=0;fontSize=32;exitX=0.5;exitY=0;exitDx=0;exitDy=0;strokeWidth=5;" parent="1" edge="1">
          <mxGeometry width="50" height="50" relative="1" as="geometry">
            <mxPoint x="1251" y="272.5" as="sourcePoint" />
            <mxPoint x="1252" y="194.5" as="targetPoint" />
          </mxGeometry>
        </mxCell>
        <mxCell id="kjO1eCLJ_FDzMnLDXmi8-252" value="" style="endArrow=classic;html=1;rounded=0;fontSize=32;exitX=0.5;exitY=0;exitDx=0;exitDy=0;strokeWidth=5;" parent="1" edge="1">
          <mxGeometry width="50" height="50" relative="1" as="geometry">
            <mxPoint x="1870.75" y="272.5" as="sourcePoint" />
            <mxPoint x="1871" y="194.5" as="targetPoint" />
          </mxGeometry>
        </mxCell>
        <mxCell id="kjO1eCLJ_FDzMnLDXmi8-253" value="" style="endArrow=classic;html=1;rounded=0;fontSize=32;strokeWidth=5;" parent="1" edge="1">
          <mxGeometry width="50" height="50" relative="1" as="geometry">
            <mxPoint x="1251" y="376.5" as="sourcePoint" />
            <mxPoint x="1251" y="337.5" as="targetPoint" />
          </mxGeometry>
        </mxCell>
        <mxCell id="kjO1eCLJ_FDzMnLDXmi8-254" value="" style="endArrow=classic;html=1;rounded=0;fontSize=32;strokeWidth=5;" parent="1" edge="1">
          <mxGeometry width="50" height="50" relative="1" as="geometry">
            <mxPoint x="1876" y="376.5" as="sourcePoint" />
            <mxPoint x="1876" y="337.5" as="targetPoint" />
          </mxGeometry>
        </mxCell>
        <mxCell id="kjO1eCLJ_FDzMnLDXmi8-255" value="" style="rounded=1;whiteSpace=wrap;html=1;fontSize=32;fillColor=none;strokeColor=#99FFCC;strokeWidth=11;" parent="1" vertex="1">
          <mxGeometry x="1038.75" y="-221.5" width="1001" height="468" as="geometry" />
        </mxCell>
        <mxCell id="kjO1eCLJ_FDzMnLDXmi8-256" value="self-attention" style="rounded=1;whiteSpace=wrap;html=1;fontSize=32;fillColor=#fff2cc;strokeColor=#d6b656;" parent="1" vertex="1">
          <mxGeometry x="1129.25" y="125.5" width="856.5" height="69" as="geometry" />
        </mxCell>
        <mxCell id="kjO1eCLJ_FDzMnLDXmi8-257" value="Add &amp;amp; Normalize" style="rounded=1;whiteSpace=wrap;html=1;fontSize=32;fillColor=#d5e8d4;strokeColor=#82b366;" parent="1" vertex="1">
          <mxGeometry x="1129.25" y="12.5" width="856.5" height="69" as="geometry" />
        </mxCell>
        <mxCell id="kjO1eCLJ_FDzMnLDXmi8-258" value="Feed Forward" style="rounded=1;whiteSpace=wrap;html=1;fontSize=32;fillColor=#CCFFCC;strokeColor=#b85450;" parent="1" vertex="1">
          <mxGeometry x="1155.75" y="-117.5" width="291.62" height="65" as="geometry" />
        </mxCell>
        <mxCell id="kjO1eCLJ_FDzMnLDXmi8-259" value="Feed Forward" style="rounded=1;whiteSpace=wrap;html=1;fontSize=32;fillColor=#CCFFCC;strokeColor=#b85450;" parent="1" vertex="1">
          <mxGeometry x="1640.25" y="-117.5" width="288.5" height="65" as="geometry" />
        </mxCell>
        <mxCell id="kjO1eCLJ_FDzMnLDXmi8-260" value="Add &amp;amp; Normalize" style="rounded=1;whiteSpace=wrap;html=1;fontSize=32;fillColor=#d5e8d4;strokeColor=#82b366;" parent="1" vertex="1">
          <mxGeometry x="1137.5" y="-208.5" width="856.5" height="52" as="geometry" />
        </mxCell>
        <mxCell id="kjO1eCLJ_FDzMnLDXmi8-261" value="" style="curved=1;endArrow=classic;html=1;rounded=0;fontSize=32;strokeWidth=5;dashed=1;entryX=0;entryY=0.75;entryDx=0;entryDy=0;exitX=0.87;exitY=0.944;exitDx=0;exitDy=0;exitPerimeter=0;" parent="1" source="kjO1eCLJ_FDzMnLDXmi8-255" target="kjO1eCLJ_FDzMnLDXmi8-257" edge="1">
          <mxGeometry width="50" height="50" relative="1" as="geometry">
            <mxPoint x="1805.75" y="220.5" as="sourcePoint" />
            <mxPoint x="1116.75" y="160.5" as="targetPoint" />
            <Array as="points">
              <mxPoint x="1766.75" y="220.5" />
              <mxPoint x="1428.75" y="220.5" />
              <mxPoint x="1090.75" y="233.5" />
              <mxPoint x="1090.75" y="155.5" />
              <mxPoint x="1077.75" y="51.5" />
            </Array>
          </mxGeometry>
        </mxCell>
        <mxCell id="kjO1eCLJ_FDzMnLDXmi8-262" value="" style="curved=1;endArrow=classic;html=1;rounded=0;fontSize=32;strokeWidth=5;dashed=1;entryX=0;entryY=0.75;entryDx=0;entryDy=0;exitX=0.87;exitY=0.944;exitDx=0;exitDy=0;exitPerimeter=0;" parent="1" edge="1">
          <mxGeometry width="50" height="50" relative="1" as="geometry">
            <mxPoint x="1908.25" y="-13.708000000000084" as="sourcePoint" />
            <mxPoint x="1127.88" y="-169.75" as="targetPoint" />
            <Array as="points">
              <mxPoint x="1765.38" y="-13.5" />
              <mxPoint x="1427.38" y="-13.5" />
              <mxPoint x="1089.38" y="-0.5" />
              <mxPoint x="1089.38" y="-78.5" />
              <mxPoint x="1076.38" y="-182.5" />
            </Array>
          </mxGeometry>
        </mxCell>
        <mxCell id="kjO1eCLJ_FDzMnLDXmi8-263" value="" style="endArrow=classic;html=1;rounded=0;fontSize=32;strokeWidth=5;" parent="1" edge="1">
          <mxGeometry width="50" height="50" relative="1" as="geometry">
            <mxPoint x="1243.75" y="119.5" as="sourcePoint" />
            <mxPoint x="1243.75" y="80.5" as="targetPoint" />
          </mxGeometry>
        </mxCell>
        <mxCell id="kjO1eCLJ_FDzMnLDXmi8-264" value="" style="endArrow=classic;html=1;rounded=0;fontSize=32;strokeWidth=5;" parent="1" edge="1">
          <mxGeometry width="50" height="50" relative="1" as="geometry">
            <mxPoint x="1878.75" y="122.5" as="sourcePoint" />
            <mxPoint x="1878.75" y="83.5" as="targetPoint" />
          </mxGeometry>
        </mxCell>
        <mxCell id="kjO1eCLJ_FDzMnLDXmi8-265" value="" style="endArrow=classic;html=1;rounded=0;fontSize=32;strokeWidth=5;exitX=0.137;exitY=-0.058;exitDx=0;exitDy=0;exitPerimeter=0;" parent="1" edge="1">
          <mxGeometry width="50" height="50" relative="1" as="geometry">
            <mxPoint x="1246.5904999999998" y="13.498000000000047" as="sourcePoint" />
            <mxPoint x="1246.75" y="-47.5" as="targetPoint" />
          </mxGeometry>
        </mxCell>
        <mxCell id="kjO1eCLJ_FDzMnLDXmi8-266" value="" style="endArrow=classic;html=1;rounded=0;fontSize=32;strokeWidth=5;entryX=0.858;entryY=1.031;entryDx=0;entryDy=0;entryPerimeter=0;" parent="1" edge="1">
          <mxGeometry width="50" height="50" relative="1" as="geometry">
            <mxPoint x="1872.75" y="12.5" as="sourcePoint" />
            <mxPoint x="1872.2829999999994" y="-49.48500000000013" as="targetPoint" />
          </mxGeometry>
        </mxCell>
        <mxCell id="kjO1eCLJ_FDzMnLDXmi8-267" value="" style="endArrow=classic;html=1;rounded=0;fontSize=32;strokeWidth=5;" parent="1" edge="1">
          <mxGeometry width="50" height="50" relative="1" as="geometry">
            <mxPoint x="1244.75" y="-117.5" as="sourcePoint" />
            <mxPoint x="1244.75" y="-156.5" as="targetPoint" />
          </mxGeometry>
        </mxCell>
        <mxCell id="kjO1eCLJ_FDzMnLDXmi8-268" value="" style="endArrow=classic;html=1;rounded=0;fontSize=32;strokeWidth=5;" parent="1" edge="1">
          <mxGeometry width="50" height="50" relative="1" as="geometry">
            <mxPoint x="1869.75" y="-117.5" as="sourcePoint" />
            <mxPoint x="1869.75" y="-156.5" as="targetPoint" />
          </mxGeometry>
        </mxCell>
        <mxCell id="kjO1eCLJ_FDzMnLDXmi8-271" value="" style="shape=partialRectangle;whiteSpace=wrap;html=1;bottom=1;right=1;left=1;top=0;fillColor=none;routingCenterX=-0.5;" parent="1" vertex="1">
          <mxGeometry x="1221" y="991" width="702" height="27" as="geometry" />
        </mxCell>
        <mxCell id="kjO1eCLJ_FDzMnLDXmi8-272" style="edgeStyle=orthogonalEdgeStyle;rounded=0;orthogonalLoop=1;jettySize=auto;html=1;entryX=0.578;entryY=1.222;entryDx=0;entryDy=0;fontSize=33;entryPerimeter=0;exitX=1;exitY=0.5;exitDx=0;exitDy=0;exitPerimeter=0;" parent="1" source="w33IMnsK6YFaEakTSdEN-25" target="kjO1eCLJ_FDzMnLDXmi8-271" edge="1">
          <mxGeometry relative="1" as="geometry">
            <mxPoint x="978.8999999999996" y="1183" as="sourcePoint" />
            <mxPoint x="533" y="1035" as="targetPoint" />
            <Array as="points">
              <mxPoint x="1129" y="1183" />
              <mxPoint x="1627" y="1183" />
            </Array>
          </mxGeometry>
        </mxCell>
        <mxCell id="kjO1eCLJ_FDzMnLDXmi8-276" value="code" style="text;html=1;align=center;verticalAlign=middle;resizable=0;points=[];autosize=1;strokeColor=none;fillColor=none;fontSize=32;" parent="1" vertex="1">
          <mxGeometry x="1327.88" y="1122" width="91" height="39" as="geometry" />
        </mxCell>
        <mxCell id="kjO1eCLJ_FDzMnLDXmi8-277" value="" style="endArrow=classic;html=1;rounded=0;fontSize=32;exitX=0.5;exitY=0;exitDx=0;exitDy=0;strokeWidth=5;" parent="1" edge="1">
          <mxGeometry width="50" height="50" relative="1" as="geometry">
            <mxPoint x="1235" y="-221" as="sourcePoint" />
            <mxPoint x="1236" y="-299" as="targetPoint" />
          </mxGeometry>
        </mxCell>
      </root>
    </mxGraphModel>
  </diagram>
</mxfile>
